HIERARCHY
ROOT mixamorig:Hips
{
	OFFSET 0.000000 201.639420 0.000000
	CHANNELS 6 Xposition Yposition Zposition Xrotation Yrotation Zrotation
	JOINT mixamorig:Spine
	{
		OFFSET 0.006200 19.524994 -2.481800
		CHANNELS 3 Xrotation Yrotation Zrotation
		JOINT mixamorig:Spine1
		{
			OFFSET -0.000900 22.835007 -2.825400
			CHANNELS 3 Xrotation Yrotation Zrotation
			JOINT mixamorig:Spine2
			{
				OFFSET -0.020600 26.552490 -3.193300
				CHANNELS 3 Xrotation Yrotation Zrotation
				JOINT mixamorig:Neck
				{
					OFFSET -0.060000 30.701813 1.352200
					CHANNELS 3 Xrotation Yrotation Zrotation
					JOINT mixamorig:Head
					{
						OFFSET -0.087200 22.547607 3.670900
						CHANNELS 3 Xrotation Yrotation Zrotation
						JOINT mixamorig:HeadTop_End
						{
							OFFSET -0.830600 40.355194 7.893500
							CHANNELS 3 Xrotation Yrotation Zrotation
							End Site
							{
								OFFSET 0.000000 30.592346 0.000000
							}
						}
						JOINT mixamorig:RightEye
						{
							OFFSET -6.302100 18.118591 16.197100
							CHANNELS 3 Xrotation Yrotation Zrotation
							End Site
							{
								OFFSET 0.000000 30.592346 0.000000
							}
						}
						JOINT mixamorig:LeftEye
						{
							OFFSET 6.741500 18.382690 16.401899
							CHANNELS 3 Xrotation Yrotation Zrotation
							End Site
							{
								OFFSET 0.000000 30.592346 0.000000
							}
						}
					}
				}
				JOINT mixamorig:LeftShoulder
				{
					OFFSET 11.924900 18.230499 1.425400
					CHANNELS 3 Xrotation Yrotation Zrotation
					JOINT mixamorig:LeftArm
					{
						OFFSET 25.435989 -0.697632 -5.229300
						CHANNELS 3 Xrotation Yrotation Zrotation
						JOINT mixamorig:LeftForeArm
						{
							OFFSET 54.684776 0.000000 0.000000
							CHANNELS 3 Xrotation Yrotation Zrotation
							JOINT mixamorig:LeftHand
							{
								OFFSET 55.098175 0.000000 0.000000
								CHANNELS 3 Xrotation Yrotation Zrotation
								JOINT mixamorig:LeftHandMiddle1
								{
									OFFSET 23.369751 0.000000 0.000000
									CHANNELS 3 Xrotation Yrotation Zrotation
									JOINT mixamorig:LeftHandMiddle2
									{
										OFFSET 6.378677 0.000000 0.000000
										CHANNELS 3 Xrotation Yrotation Zrotation
										JOINT mixamorig:LeftHandMiddle3
										{
											OFFSET 6.148331 0.000000 0.000000
											CHANNELS 3 Xrotation Yrotation Zrotation
											JOINT mixamorig:LeftHandMiddle4
											{
												OFFSET 6.582504 0.000000 0.000000
												CHANNELS 3 Xrotation Yrotation Zrotation
												End Site
												{
													OFFSET -1.168900 6.395691 1.028606
												}
											}
										}
									}
								}
								JOINT mixamorig:LeftHandThumb1
								{
									OFFSET 7.235672 -3.848206 5.434273
									CHANNELS 3 Xrotation Yrotation Zrotation
									JOINT mixamorig:LeftHandThumb2
									{
										OFFSET 6.568451 -3.792297 3.792300
										CHANNELS 3 Xrotation Yrotation Zrotation
										JOINT mixamorig:LeftHandThumb3
										{
											OFFSET 6.063080 -3.500519 3.500518
											CHANNELS 3 Xrotation Yrotation Zrotation
											JOINT mixamorig:LeftHandThumb4
											{
												OFFSET 4.793182 -2.767334 2.767349
												CHANNELS 3 Xrotation Yrotation Zrotation
												End Site
												{
													OFFSET 0.101639 6.054260 1.275483
												}
											}
										}
									}
								}
								JOINT mixamorig:LeftHandIndex1
								{
									OFFSET 23.101074 -0.309540 4.992809
									CHANNELS 3 Xrotation Yrotation Zrotation
									JOINT mixamorig:LeftHandIndex2
									{
										OFFSET 6.226883 0.000000 0.000000
										CHANNELS 3 Xrotation Yrotation Zrotation
										JOINT mixamorig:LeftHandIndex3
										{
											OFFSET 6.094330 0.000000 0.000000
											CHANNELS 3 Xrotation Yrotation Zrotation
											JOINT mixamorig:LeftHandIndex4
											{
												OFFSET 5.482605 0.000000 0.000000
												CHANNELS 3 Xrotation Yrotation Zrotation
												End Site
												{
													OFFSET -1.427902 5.233032 0.797164
												}
											}
										}
									}
								}
								JOINT mixamorig:LeftHandRing1
								{
									OFFSET 22.299240 0.021149 -3.964172
									CHANNELS 3 Xrotation Yrotation Zrotation
									JOINT mixamorig:LeftHandRing2
									{
										OFFSET 6.321869 0.000000 0.000000
										CHANNELS 3 Xrotation Yrotation Zrotation
										JOINT mixamorig:LeftHandRing3
										{
											OFFSET 5.899796 0.000000 0.000000
											CHANNELS 3 Xrotation Yrotation Zrotation
											JOINT mixamorig:LeftHandRing4
											{
												OFFSET 6.517899 0.000000 0.000000
												CHANNELS 3 Xrotation Yrotation Zrotation
												End Site
												{
													OFFSET -1.637299 6.232208 0.980890
												}
											}
										}
									}
								}
								JOINT mixamorig:LeftHandPinky1
								{
									OFFSET 20.463791 -0.302338 -8.562233
									CHANNELS 3 Xrotation Yrotation Zrotation
									JOINT mixamorig:LeftHandPinky2
									{
										OFFSET 6.908646 0.000000 0.000000
										CHANNELS 3 Xrotation Yrotation Zrotation
										JOINT mixamorig:LeftHandPinky3
										{
											OFFSET 4.622849 0.000000 0.000000
											CHANNELS 3 Xrotation Yrotation Zrotation
											JOINT mixamorig:LeftHandPinky4
											{
												OFFSET 5.216080 0.000000 0.000000
												CHANNELS 3 Xrotation Yrotation Zrotation
												End Site
												{
													OFFSET -0.606308 5.116241 0.814926
												}
											}
										}
									}
								}
							}
						}
					}
				}
				JOINT mixamorig:RightShoulder
				{
					OFFSET -12.001300 18.284088 1.348900
					CHANNELS 3 Xrotation Yrotation Zrotation
					JOINT mixamorig:RightArm
					{
						OFFSET -25.308500 -0.751312 -5.164599
						CHANNELS 3 Xrotation Yrotation Zrotation
						JOINT mixamorig:RightForeArm
						{
							OFFSET -54.684429 0.000000 0.000000
							CHANNELS 3 Xrotation Yrotation Zrotation
							JOINT mixamorig:RightHand
							{
								OFFSET -55.150291 0.000000 0.000000
								CHANNELS 3 Xrotation Yrotation Zrotation
								JOINT mixamorig:RightHandMiddle1
								{
									OFFSET -23.317566 0.000000 0.000000
									CHANNELS 3 Xrotation Yrotation Zrotation
									JOINT mixamorig:RightHandMiddle2
									{
										OFFSET -6.378403 0.000000 0.000000
										CHANNELS 3 Xrotation Yrotation Zrotation
										JOINT mixamorig:RightHandMiddle3
										{
											OFFSET -6.148193 0.000000 0.000000
											CHANNELS 3 Xrotation Yrotation Zrotation
											JOINT mixamorig:RightHandMiddle4
											{
												OFFSET -6.583389 0.000000 0.000000
												CHANNELS 3 Xrotation Yrotation Zrotation
												End Site
												{
													OFFSET 1.171692 6.395905 1.029786
												}
											}
										}
									}
								}
								JOINT mixamorig:RightHandThumb1
								{
									OFFSET -7.190521 -3.860474 5.435846
									CHANNELS 3 Xrotation Yrotation Zrotation
									JOINT mixamorig:RightHandThumb2
									{
										OFFSET -6.567429 -3.791718 3.791708
										CHANNELS 3 Xrotation Yrotation Zrotation
										JOINT mixamorig:RightHandThumb3
										{
											OFFSET -6.062469 -3.500153 3.500166
											CHANNELS 3 Xrotation Yrotation Zrotation
											JOINT mixamorig:RightHandThumb4
											{
												OFFSET -4.792618 -2.767029 2.767022
												CHANNELS 3 Xrotation Yrotation Zrotation
												End Site
												{
													OFFSET -0.100327 6.053253 1.276754
												}
											}
										}
									}
								}
								JOINT mixamorig:RightHandIndex1
								{
									OFFSET -23.048981 -0.310791 4.992554
									CHANNELS 3 Xrotation Yrotation Zrotation
									JOINT mixamorig:RightHandIndex2
									{
										OFFSET -6.227539 0.000000 0.000000
										CHANNELS 3 Xrotation Yrotation Zrotation
										JOINT mixamorig:RightHandIndex3
										{
											OFFSET -6.095047 0.000000 0.000000
											CHANNELS 3 Xrotation Yrotation Zrotation
											JOINT mixamorig:RightHandIndex4
											{
												OFFSET -5.484772 0.000000 0.000000
												CHANNELS 3 Xrotation Yrotation Zrotation
												End Site
												{
													OFFSET 1.420593 5.237305 0.797056
												}
											}
										}
									}
								}
								JOINT mixamorig:RightHandRing1
								{
									OFFSET -22.246323 0.020569 -3.963762
									CHANNELS 3 Xrotation Yrotation Zrotation
									JOINT mixamorig:RightHandRing2
									{
										OFFSET -6.322128 0.000000 0.000000
										CHANNELS 3 Xrotation Yrotation Zrotation
										JOINT mixamorig:RightHandRing3
										{
											OFFSET -5.900024 0.000000 0.000000
											CHANNELS 3 Xrotation Yrotation Zrotation
											JOINT mixamorig:RightHandRing4
											{
												OFFSET -6.518356 0.000000 0.000000
												CHANNELS 3 Xrotation Yrotation Zrotation
												End Site
												{
													OFFSET 1.636398 6.232697 0.982186
												}
											}
										}
									}
								}
								JOINT mixamorig:RightHandPinky1
								{
									OFFSET -20.411011 -0.303314 -8.561701
									CHANNELS 3 Xrotation Yrotation Zrotation
									JOINT mixamorig:RightHandPinky2
									{
										OFFSET -6.907349 0.000000 0.000000
										CHANNELS 3 Xrotation Yrotation Zrotation
										JOINT mixamorig:RightHandPinky3
										{
											OFFSET -4.623840 0.000000 0.000000
											CHANNELS 3 Xrotation Yrotation Zrotation
											JOINT mixamorig:RightHandPinky4
											{
												OFFSET -5.218353 0.000000 0.000000
												CHANNELS 3 Xrotation Yrotation Zrotation
												End Site
												{
													OFFSET 0.602097 5.118835 0.816273
												}
											}
										}
									}
								}
							}
						}
					}
				}
			}
		}
	}
	JOINT mixamorig:LeftUpLeg
	{
		OFFSET 18.168400 -13.561905 -0.039000
		CHANNELS 3 Xrotation Yrotation Zrotation
		JOINT mixamorig:LeftLeg
		{
			OFFSET 0.577358 -80.825211 -3.695000
			CHANNELS 3 Xrotation Yrotation Zrotation
			JOINT mixamorig:LeftFoot
			{
				OFFSET -0.577356 -83.370262 -6.520700
				CHANNELS 3 Xrotation Yrotation Zrotation
				JOINT mixamorig:LeftToeBase
				{
					OFFSET 0.750401 -20.798306 25.135401
					CHANNELS 3 Xrotation Yrotation Zrotation
					JOINT mixamorig:LeftToe_End
					{
						OFFSET -0.000500 0.001200 19.917799
						CHANNELS 3 Xrotation Yrotation Zrotation
						End Site
						{
							OFFSET 0.000000 19.917805 0.000000
						}
					}
				}
			}
		}
	}
	JOINT mixamorig:RightUpLeg
	{
		OFFSET -18.162500 -13.585098 -0.041000
		CHANNELS 3 Xrotation Yrotation Zrotation
		JOINT mixamorig:RightLeg
		{
			OFFSET -0.595024 -80.945297 -3.631900
			CHANNELS 3 Xrotation Yrotation Zrotation
			JOINT mixamorig:RightFoot
			{
				OFFSET 0.595024 -83.218193 -6.561200
				CHANNELS 3 Xrotation Yrotation Zrotation
				JOINT mixamorig:RightToeBase
				{
					OFFSET -0.753601 -20.807106 25.115000
					CHANNELS 3 Xrotation Yrotation Zrotation
					JOINT mixamorig:RightToe_End
					{
						OFFSET 0.000299 0.001700 19.918200
						CHANNELS 3 Xrotation Yrotation Zrotation
						End Site
						{
							OFFSET 0.000000 19.918203 0.000000
						}
					}
				}
			}
		}
	}
}
MOTION
Frames: 4
Frame Time: 0.033333
0.498743 171.353653 1.528526 -13.315081 -15.586355 2.043962 4.783875 20.727298 5.384640 7.952625 2.378561 -8.530678 8.245475 2.276731 -8.229435 -3.646293 -3.880400 4.125058 2.766926 -12.994418 3.098088 -0.000000 -0.000000 0.000000 -0.000000 -0.000000 0.000000 -0.000000 -0.000000 0.000000 0.566130 -3.137706 1.463894 -47.293715 -41.766945 -60.074437 0.000001 -41.122687 -0.000015 28.999098 -15.937818 25.565521 0.126356 1.315687 -10.971312 0.449150 2.450491 -20.769840 0.508150 2.600587 -22.108843 0.000002 -0.000000 0.000000 -2.229672 22.637366 9.128532 4.766326 18.189062 1.497627 -1.384190 8.809160 7.207746 -0.000001 0.000000 0.000001 0.069792 0.979921 -8.148307 0.457482 2.472319 -20.964074 0.398527 2.312749 -19.551743 -0.000000 -0.000001 -0.000003 0.221691 1.736511 -14.549718 0.436947 2.418090 -20.482489 0.661431 2.949518 -25.273950 -0.000000 0.000002 0.000002 1.519333 5.942329 -16.995929 0.428959 -1.669573 -20.700236 0.799254 3.224924 -27.832855 0.000001 0.000001 0.000000 1.942131 12.078384 6.674310 -27.003288 -14.423025 37.435936 0.000010 76.025183 -0.000003 36.542516 -0.429074 -19.614415 0.979036 -3.562665 30.722874 0.075563 -1.024393 8.437218 0.000973 0.116491 -0.955920 0.000001 -0.000000 0.000001 -1.675464 -19.703948 -7.089802 5.118913 -13.930161 -0.598193 -0.382485 -9.992839 -3.138574 -0.000003 0.000001 0.000001 0.841215 -3.320259 28.427410 0.012348 -0.415034 3.407689 0.020534 0.535105 -4.395392 -0.000000 -0.000000 -0.000001 1.167825 -3.862068 33.637964 0.225095 -1.758272 14.589486 0.012772 -0.422181 3.466444 -0.000001 -0.000001 0.000001 1.332933 -4.098799 36.016158 0.396040 -2.317365 19.393993 0.053309 -0.861121 7.084576 0.000000 -0.000000 0.000001 -15.139801 8.368425 2.136763 67.591825 9.489802 6.294911 -27.162730 8.138101 -12.192494 -13.586077 0.000008 0.000005 -0.000000 0.000000 0.000000 -29.859815 -4.212827 -8.791678 69.298594 -4.803501 -9.280892 -27.500167 -2.405910 8.587769 -0.000129 -0.000002 -0.000004 0.000000 0.000000 0.000000 
-0.845542 172.102585 1.794060 -12.750046 -13.624147 1.717146 2.786761 17.672208 4.968169 8.315140 2.033612 -6.774163 8.512008 1.968075 -6.498558 -4.130815 -3.418929 4.080339 1.364337 -11.069168 -2.287505 0.000000 0.000000 0.000000 0.000000 0.000000 0.000000 0.000000 0.000000 0.000000 0.648786 -4.125232 2.603086 -39.582647 -35.282309 -53.979456 0.000022 -51.507983 0.000014 26.635783 -16.907305 23.925871 0.156481 1.462465 -12.213342 0.355513 2.187926 -18.456255 0.525465 2.642757 -22.487397 0.000002 -0.000003 0.000002 -2.229670 22.637363 9.128531 4.766328 18.189070 1.497631 -1.384197 8.809161 7.207748 0.000000 -0.000003 0.000001 0.037101 0.715288 -5.937942 0.316633 2.067869 -17.409181 0.454299 2.463997 -20.890007 -0.000002 -0.000000 0.000000 0.421313 2.375869 -20.108825 0.405606 2.332550 -19.726372 0.620201 2.860647 -24.460345 -0.000001 0.000001 -0.000001 2.524348 6.712849 -26.095644 0.448521 -1.618425 -21.153188 0.704484 3.038885 -26.098108 0.000000 -0.000000 -0.000003 1.568456 8.960332 6.442181 -28.104987 -8.215095 39.440541 -0.000068 75.918557 0.000054 34.966395 -1.088579 -19.187301 1.148810 -3.833375 33.354491 0.088159 -1.105978 9.114719 0.001290 0.134314 -1.102272 0.000002 0.000000 -0.000000 -1.675465 -19.703950 -7.089799 5.118916 -13.930162 -0.598193 -0.382480 -9.992839 -3.138575 -0.000002 0.000002 0.000003 1.173793 -3.870976 33.726497 0.026297 -0.605406 4.974127 0.026057 0.602640 -4.951332 -0.000000 0.000000 -0.000002 1.121360 -3.791449 32.941760 0.211239 -1.704189 14.130948 0.015764 -0.468910 3.850651 -0.000001 0.000000 -0.000002 1.102275 -3.761869 32.652092 0.343037 -2.161018 18.037263 0.066029 -0.957901 7.885945 0.000000 0.000001 -0.000001 -17.804983 3.004049 3.443554 70.091791 9.235738 3.286775 -21.275532 6.215811 -13.573792 -14.428930 0.037049 -1.837589 -0.000000 0.000000 0.000000 -29.119159 -5.504703 -8.145464 68.046572 -6.364031 -9.256470 -27.566503 -2.048854 9.019670 -0.017551 0.000003 0.000004 0.000000 -0.000002 -0.000000 
-2.102501 173.851746 2.265430 -12.144395 -10.466030 1.586639 0.743097 11.512150 3.244911 8.640373 1.300921 -4.420206 8.731507 1.272568 -4.232085 -4.403484 -2.362741 3.004366 0.106524 -6.610883 -7.239483 0.000000 0.000000 0.000000 0.000000 0.000000 0.000000 0.000000 0.000000 0.000000 0.863770 -5.959287 3.264567 -29.922758 -23.196968 -46.561799 0.000033 -61.656575 0.000018 29.202668 -17.514297 25.051274 0.191779 1.616928 -13.527345 0.316908 2.068750 -17.416834 0.499383 2.578926 -21.914747 -0.000000 -0.000001 -0.000001 -2.229670 22.637364 9.128534 4.766329 18.189065 1.497624 -1.384193 8.809159 7.207748 0.000000 0.000003 0.000000 0.033146 0.676264 -5.612970 0.221565 1.736039 -14.545569 0.440750 2.428246 -20.572601 -0.000000 -0.000001 -0.000001 0.571979 2.752325 -23.475584 0.457560 2.472532 -20.965872 0.577036 2.763920 -23.580659 0.000000 0.000002 -0.000002 3.132336 7.069300 -31.159702 0.590015 -1.279831 -24.190843 0.646372 2.917460 -24.979774 -0.000002 0.000000 -0.000002 1.333369 6.945433 6.748279 -31.861248 1.558827 42.509130 0.000006 75.038999 -0.000018 33.645409 -2.588348 -18.449727 1.212077 -3.927588 34.289435 0.114393 -1.258637 10.386375 0.001283 0.133541 -1.095697 0.000001 -0.000000 -0.000000 -1.675461 -19.703945 -7.089797 5.118912 -13.930161 -0.598194 -0.382480 -9.992838 -3.138579 -0.000001 0.000002 0.000002 1.339703 -4.108061 36.110787 0.060692 -0.918550 7.559915 0.026396 0.606485 -4.983003 0.000001 -0.000000 -0.000001 1.064376 -3.702210 32.069787 0.200093 -1.659301 13.751059 0.016206 -0.475438 3.904269 0.000000 0.000000 0.000000 0.954918 -3.521823 30.332481 0.282022 -1.963923 16.342145 0.067522 -0.968607 7.974587 -0.000001 0.000001 -0.000002 -20.902274 -0.295387 4.559197 71.696496 8.893421 2.532673 -15.286752 3.538231 -14.872329 -16.230073 0.367239 -2.676422 0.000000 0.000000 -0.000000 -27.329798 -5.754446 -7.557068 65.711098 -8.153613 -8.000932 -27.101805 -2.661906 9.381271 -0.016325 0.000007 0.000004 0.000000 0.000002 0.000000 
-3.307306 176.159576 2.954853 -11.698122 -6.622018 1.615363 -1.193823 2.197882 -0.023420 8.915544 0.162956 -1.685762 8.940120 0.164393 -1.653878 -3.891939 -0.637748 1.366640 -1.192837 0.624913 -11.201816 0.000000 -0.000000 0.000000 0.000000 -0.000000 0.000000 0.000000 -0.000000 0.000000 1.119453 -8.236544 2.653974 -21.759040 -4.973161 -41.053801 0.000058 -69.913393 0.000056 36.386262 -15.821600 27.899593 0.211143 1.695358 -14.197258 0.326623 2.099440 -17.683742 0.456149 2.468852 -20.932916 -0.000000 0.000000 0.000003 -2.229670 22.637366 9.128534 4.766327 18.189067 1.497629 -1.384193 8.809155 7.207747 0.000001 -0.000000 -0.000000 0.053349 0.857200 -7.121809 0.179191 1.563679 -13.073619 0.380146 2.260334 -19.091104 -0.000000 0.000002 -0.000002 0.553951 2.710492 -23.097408 0.568323 2.743906 -23.399205 0.560564 2.725882 -23.236754 -0.000001 -0.000001 -0.000003 2.981629 6.987583 -29.928188 0.812636 -0.828902 -28.354504 0.653775 2.933277 -25.124829 0.000000 0.000000 0.000002 1.431260 7.383151 7.760888 -38.513869 13.599846 47.893170 0.000050 70.896995 -0.000043 33.643968 -3.358415 -18.775516 1.203594 -3.915137 34.165402 0.142307 -1.402355 11.588447 0.000614 0.092342 -0.757696 0.000004 -0.000000 -0.000000 -1.675464 -19.703948 -7.089798 5.118908 -13.930163 -0.598194 -0.382484 -9.992835 -3.138572 0.000001 0.000001 -0.000002 1.330444 -4.095377 35.981320 0.107164 -1.218458 10.051151 0.019222 0.517790 -4.252822 0.000003 0.000000 -0.000001 1.056800 -3.690110 31.952342 0.188517 -1.611283 13.345457 0.014870 -0.455469 3.740085 -0.000001 0.000000 -0.000001 0.948023 -3.510041 30.220162 0.226894 -1.765190 14.648085 0.058374 -0.900946 7.414150 -0.000002 0.000000 -0.000000 -23.710698 -0.052194 5.830521 72.748454 8.916854 4.393290 -14.286964 2.407078 -15.900752 -6.675494 0.211906 -2.716873 0.000000 -0.000000 -0.000000 -24.775847 -4.956652 -6.686740 62.826286 -9.358132 -6.067763 -26.159054 -5.221879 9.240244 -0.000042 -0.000003 0.000005 -0.000000 -0.000000 -0.000000 
